<mxfile host="app.diagrams.net" agent="Mozilla/5.0 (Windows NT 10.0; Win64; x64) AppleWebKit/537.36 (KHTML, like Gecko) Chrome/131.0.0.0 Safari/537.36" version="25.0.3" pages="2">
  <diagram name="CARGO_DEPTO" id="ETRdzeVaENdObJwePl4P">
    <mxGraphModel dx="954" dy="560" grid="1" gridSize="10" guides="1" tooltips="1" connect="1" arrows="1" fold="1" page="1" pageScale="1" pageWidth="827" pageHeight="1169" math="0" shadow="0">
      <root>
        <mxCell id="0" />
        <mxCell id="1" parent="0" />
        <mxCell id="CW1IVtE_7MA7ts7nDul1-1" value="INICIO" style="strokeWidth=2;html=1;shape=mxgraph.flowchart.start_1;whiteSpace=wrap;" vertex="1" parent="1">
          <mxGeometry x="350" y="50" width="100" height="60" as="geometry" />
        </mxCell>
        <mxCell id="CW1IVtE_7MA7ts7nDul1-2" value="FIM" style="strokeWidth=2;html=1;shape=mxgraph.flowchart.start_1;whiteSpace=wrap;" vertex="1" parent="1">
          <mxGeometry x="350" y="830" width="100" height="60" as="geometry" />
        </mxCell>
        <mxCell id="CW1IVtE_7MA7ts7nDul1-3" value="CARGO" style="shape=parallelogram;html=1;strokeWidth=2;perimeter=parallelogramPerimeter;whiteSpace=wrap;rounded=1;arcSize=12;size=0.23;" vertex="1" parent="1">
          <mxGeometry x="340" y="160" width="100" height="60" as="geometry" />
        </mxCell>
        <mxCell id="CW1IVtE_7MA7ts7nDul1-4" value="DEPARTAMENTO" style="shape=parallelogram;html=1;strokeWidth=2;perimeter=parallelogramPerimeter;whiteSpace=wrap;rounded=1;arcSize=12;size=0.23;" vertex="1" parent="1">
          <mxGeometry x="320" y="280" width="160" height="60" as="geometry" />
        </mxCell>
        <mxCell id="CW1IVtE_7MA7ts7nDul1-7" value="CARGO = &quot;GERENTE&quot;" style="strokeWidth=2;html=1;shape=mxgraph.flowchart.decision;whiteSpace=wrap;" vertex="1" parent="1">
          <mxGeometry x="320" y="390" width="160" height="100" as="geometry" />
        </mxCell>
        <mxCell id="CW1IVtE_7MA7ts7nDul1-8" value="DEPARTAMENTO = &quot;TIC&quot;" style="strokeWidth=2;html=1;shape=mxgraph.flowchart.decision;whiteSpace=wrap;" vertex="1" parent="1">
          <mxGeometry x="130" y="485" width="160" height="100" as="geometry" />
        </mxCell>
        <mxCell id="CW1IVtE_7MA7ts7nDul1-9" value="&quot;RECEBE BONUS&quot;" style="strokeWidth=2;html=1;shape=mxgraph.flowchart.display;whiteSpace=wrap;" vertex="1" parent="1">
          <mxGeometry x="150" y="650" width="120" height="70" as="geometry" />
        </mxCell>
        <mxCell id="CW1IVtE_7MA7ts7nDul1-10" style="edgeStyle=orthogonalEdgeStyle;rounded=0;orthogonalLoop=1;jettySize=auto;html=1;exitX=0;exitY=0.5;exitDx=0;exitDy=0;exitPerimeter=0;entryX=0.5;entryY=0;entryDx=0;entryDy=0;entryPerimeter=0;" edge="1" parent="1" source="CW1IVtE_7MA7ts7nDul1-7" target="CW1IVtE_7MA7ts7nDul1-8">
          <mxGeometry relative="1" as="geometry" />
        </mxCell>
        <mxCell id="CW1IVtE_7MA7ts7nDul1-12" value="SIM" style="edgeLabel;html=1;align=center;verticalAlign=middle;resizable=0;points=[];" vertex="1" connectable="0" parent="CW1IVtE_7MA7ts7nDul1-10">
          <mxGeometry x="-0.5355" y="-2" relative="1" as="geometry">
            <mxPoint as="offset" />
          </mxGeometry>
        </mxCell>
        <mxCell id="CW1IVtE_7MA7ts7nDul1-11" style="edgeStyle=orthogonalEdgeStyle;rounded=0;orthogonalLoop=1;jettySize=auto;html=1;exitX=0.5;exitY=1;exitDx=0;exitDy=0;exitPerimeter=0;entryX=0.5;entryY=0;entryDx=0;entryDy=0;entryPerimeter=0;" edge="1" parent="1" source="CW1IVtE_7MA7ts7nDul1-8" target="CW1IVtE_7MA7ts7nDul1-9">
          <mxGeometry relative="1" as="geometry" />
        </mxCell>
        <mxCell id="CW1IVtE_7MA7ts7nDul1-15" value="" style="verticalLabelPosition=bottom;verticalAlign=top;html=1;shape=mxgraph.flowchart.on-page_reference;" vertex="1" parent="1">
          <mxGeometry x="370" y="730" width="60" height="60" as="geometry" />
        </mxCell>
        <mxCell id="CW1IVtE_7MA7ts7nDul1-16" style="edgeStyle=orthogonalEdgeStyle;rounded=0;orthogonalLoop=1;jettySize=auto;html=1;exitX=0.5;exitY=1;exitDx=0;exitDy=0;exitPerimeter=0;entryX=0;entryY=0.5;entryDx=0;entryDy=0;entryPerimeter=0;" edge="1" parent="1" source="CW1IVtE_7MA7ts7nDul1-9" target="CW1IVtE_7MA7ts7nDul1-15">
          <mxGeometry relative="1" as="geometry" />
        </mxCell>
        <mxCell id="CW1IVtE_7MA7ts7nDul1-18" style="edgeStyle=orthogonalEdgeStyle;rounded=0;orthogonalLoop=1;jettySize=auto;html=1;exitX=0.5;exitY=1;exitDx=0;exitDy=0;exitPerimeter=0;entryX=0.59;entryY=-0.004;entryDx=0;entryDy=0;entryPerimeter=0;" edge="1" parent="1" source="CW1IVtE_7MA7ts7nDul1-1" target="CW1IVtE_7MA7ts7nDul1-3">
          <mxGeometry relative="1" as="geometry" />
        </mxCell>
        <mxCell id="CW1IVtE_7MA7ts7nDul1-19" style="edgeStyle=orthogonalEdgeStyle;rounded=0;orthogonalLoop=1;jettySize=auto;html=1;exitX=0.5;exitY=1;exitDx=0;exitDy=0;entryX=0.438;entryY=-0.054;entryDx=0;entryDy=0;entryPerimeter=0;" edge="1" parent="1" source="CW1IVtE_7MA7ts7nDul1-3" target="CW1IVtE_7MA7ts7nDul1-4">
          <mxGeometry relative="1" as="geometry" />
        </mxCell>
        <mxCell id="CW1IVtE_7MA7ts7nDul1-20" style="edgeStyle=orthogonalEdgeStyle;rounded=0;orthogonalLoop=1;jettySize=auto;html=1;exitX=0.5;exitY=1;exitDx=0;exitDy=0;entryX=0.5;entryY=0;entryDx=0;entryDy=0;entryPerimeter=0;" edge="1" parent="1" source="CW1IVtE_7MA7ts7nDul1-4" target="CW1IVtE_7MA7ts7nDul1-7">
          <mxGeometry relative="1" as="geometry" />
        </mxCell>
        <mxCell id="CW1IVtE_7MA7ts7nDul1-22" style="edgeStyle=orthogonalEdgeStyle;rounded=0;orthogonalLoop=1;jettySize=auto;html=1;exitX=0.5;exitY=1;exitDx=0;exitDy=0;exitPerimeter=0;entryX=0.5;entryY=0;entryDx=0;entryDy=0;entryPerimeter=0;" edge="1" parent="1" source="CW1IVtE_7MA7ts7nDul1-15" target="CW1IVtE_7MA7ts7nDul1-2">
          <mxGeometry relative="1" as="geometry" />
        </mxCell>
        <mxCell id="CW1IVtE_7MA7ts7nDul1-23" value="" style="verticalLabelPosition=bottom;verticalAlign=top;html=1;shape=mxgraph.flowchart.on-page_reference;" vertex="1" parent="1">
          <mxGeometry x="580" y="410" width="60" height="60" as="geometry" />
        </mxCell>
        <mxCell id="CW1IVtE_7MA7ts7nDul1-24" style="edgeStyle=orthogonalEdgeStyle;rounded=0;orthogonalLoop=1;jettySize=auto;html=1;exitX=1;exitY=0.5;exitDx=0;exitDy=0;exitPerimeter=0;entryX=0;entryY=0.5;entryDx=0;entryDy=0;entryPerimeter=0;" edge="1" parent="1" source="CW1IVtE_7MA7ts7nDul1-7" target="CW1IVtE_7MA7ts7nDul1-23">
          <mxGeometry relative="1" as="geometry" />
        </mxCell>
        <mxCell id="CW1IVtE_7MA7ts7nDul1-30" value="NÃO" style="edgeLabel;html=1;align=center;verticalAlign=middle;resizable=0;points=[];" vertex="1" connectable="0" parent="CW1IVtE_7MA7ts7nDul1-24">
          <mxGeometry x="-0.12" relative="1" as="geometry">
            <mxPoint as="offset" />
          </mxGeometry>
        </mxCell>
        <mxCell id="CW1IVtE_7MA7ts7nDul1-25" style="edgeStyle=orthogonalEdgeStyle;rounded=0;orthogonalLoop=1;jettySize=auto;html=1;exitX=1;exitY=0.5;exitDx=0;exitDy=0;exitPerimeter=0;entryX=0.617;entryY=1.046;entryDx=0;entryDy=0;entryPerimeter=0;" edge="1" parent="1" source="CW1IVtE_7MA7ts7nDul1-8" target="CW1IVtE_7MA7ts7nDul1-23">
          <mxGeometry relative="1" as="geometry" />
        </mxCell>
        <mxCell id="CW1IVtE_7MA7ts7nDul1-29" value="NÃO" style="edgeLabel;html=1;align=center;verticalAlign=middle;resizable=0;points=[];" vertex="1" connectable="0" parent="CW1IVtE_7MA7ts7nDul1-25">
          <mxGeometry x="-0.2755" relative="1" as="geometry">
            <mxPoint as="offset" />
          </mxGeometry>
        </mxCell>
        <mxCell id="CW1IVtE_7MA7ts7nDul1-26" value="&quot;NÃO RECEBE BONUS&quot;" style="strokeWidth=2;html=1;shape=mxgraph.flowchart.display;whiteSpace=wrap;" vertex="1" parent="1">
          <mxGeometry x="650" y="640" width="130" height="70" as="geometry" />
        </mxCell>
        <mxCell id="CW1IVtE_7MA7ts7nDul1-27" style="edgeStyle=orthogonalEdgeStyle;rounded=0;orthogonalLoop=1;jettySize=auto;html=1;entryX=0.5;entryY=0;entryDx=0;entryDy=0;entryPerimeter=0;" edge="1" parent="1" source="CW1IVtE_7MA7ts7nDul1-23" target="CW1IVtE_7MA7ts7nDul1-26">
          <mxGeometry relative="1" as="geometry" />
        </mxCell>
        <mxCell id="CW1IVtE_7MA7ts7nDul1-28" style="edgeStyle=orthogonalEdgeStyle;rounded=0;orthogonalLoop=1;jettySize=auto;html=1;exitX=0.5;exitY=1;exitDx=0;exitDy=0;exitPerimeter=0;entryX=1;entryY=0.5;entryDx=0;entryDy=0;entryPerimeter=0;" edge="1" parent="1" source="CW1IVtE_7MA7ts7nDul1-26" target="CW1IVtE_7MA7ts7nDul1-15">
          <mxGeometry relative="1" as="geometry" />
        </mxCell>
      </root>
    </mxGraphModel>
  </diagram>
  <diagram id="eDWUSq20homFeCtwVckH" name="IDADE">
    <mxGraphModel dx="1050" dy="607" grid="1" gridSize="10" guides="1" tooltips="1" connect="1" arrows="1" fold="1" page="1" pageScale="1" pageWidth="827" pageHeight="1169" math="0" shadow="0">
      <root>
        <mxCell id="0" />
        <mxCell id="1" parent="0" />
        <mxCell id="aEb02ax9EN3gxrXx6o8U-1" value="INICIO" style="strokeWidth=2;html=1;shape=mxgraph.flowchart.start_1;whiteSpace=wrap;" vertex="1" parent="1">
          <mxGeometry x="350" y="50" width="100" height="60" as="geometry" />
        </mxCell>
        <mxCell id="aEb02ax9EN3gxrXx6o8U-2" value="FIM" style="strokeWidth=2;html=1;shape=mxgraph.flowchart.start_1;whiteSpace=wrap;" vertex="1" parent="1">
          <mxGeometry x="350" y="1100" width="100" height="60" as="geometry" />
        </mxCell>
        <mxCell id="aEb02ax9EN3gxrXx6o8U-3" value="CARGO" style="shape=parallelogram;html=1;strokeWidth=2;perimeter=parallelogramPerimeter;whiteSpace=wrap;rounded=1;arcSize=12;size=0.23;" vertex="1" parent="1">
          <mxGeometry x="340" y="160" width="100" height="60" as="geometry" />
        </mxCell>
        <mxCell id="aEb02ax9EN3gxrXx6o8U-4" value="DEPARTAMENTO" style="shape=parallelogram;html=1;strokeWidth=2;perimeter=parallelogramPerimeter;whiteSpace=wrap;rounded=1;arcSize=12;size=0.23;" vertex="1" parent="1">
          <mxGeometry x="320" y="280" width="160" height="60" as="geometry" />
        </mxCell>
        <mxCell id="aEb02ax9EN3gxrXx6o8U-5" value="CARGO = &quot;GERENTE&quot;" style="strokeWidth=2;html=1;shape=mxgraph.flowchart.decision;whiteSpace=wrap;" vertex="1" parent="1">
          <mxGeometry x="320" y="390" width="160" height="100" as="geometry" />
        </mxCell>
        <mxCell id="aEb02ax9EN3gxrXx6o8U-6" value="DEPARTAMENTO = &quot;TIC&quot;" style="strokeWidth=2;html=1;shape=mxgraph.flowchart.decision;whiteSpace=wrap;" vertex="1" parent="1">
          <mxGeometry x="130" y="485" width="160" height="100" as="geometry" />
        </mxCell>
        <mxCell id="aEb02ax9EN3gxrXx6o8U-7" value="&quot;RECEBE BONUS&quot;" style="strokeWidth=2;html=1;shape=mxgraph.flowchart.display;whiteSpace=wrap;" vertex="1" parent="1">
          <mxGeometry x="260" y="840" width="120" height="70" as="geometry" />
        </mxCell>
        <mxCell id="aEb02ax9EN3gxrXx6o8U-8" style="edgeStyle=orthogonalEdgeStyle;rounded=0;orthogonalLoop=1;jettySize=auto;html=1;exitX=0;exitY=0.5;exitDx=0;exitDy=0;exitPerimeter=0;entryX=0.5;entryY=0;entryDx=0;entryDy=0;entryPerimeter=0;" edge="1" parent="1" source="aEb02ax9EN3gxrXx6o8U-5" target="aEb02ax9EN3gxrXx6o8U-6">
          <mxGeometry relative="1" as="geometry" />
        </mxCell>
        <mxCell id="aEb02ax9EN3gxrXx6o8U-9" value="SIM" style="edgeLabel;html=1;align=center;verticalAlign=middle;resizable=0;points=[];" vertex="1" connectable="0" parent="aEb02ax9EN3gxrXx6o8U-8">
          <mxGeometry x="-0.5355" y="-2" relative="1" as="geometry">
            <mxPoint as="offset" />
          </mxGeometry>
        </mxCell>
        <mxCell id="aEb02ax9EN3gxrXx6o8U-11" value="" style="verticalLabelPosition=bottom;verticalAlign=top;html=1;shape=mxgraph.flowchart.on-page_reference;" vertex="1" parent="1">
          <mxGeometry x="370" y="1000" width="60" height="60" as="geometry" />
        </mxCell>
        <mxCell id="aEb02ax9EN3gxrXx6o8U-13" style="edgeStyle=orthogonalEdgeStyle;rounded=0;orthogonalLoop=1;jettySize=auto;html=1;exitX=0.5;exitY=1;exitDx=0;exitDy=0;exitPerimeter=0;entryX=0.59;entryY=-0.004;entryDx=0;entryDy=0;entryPerimeter=0;" edge="1" parent="1" source="aEb02ax9EN3gxrXx6o8U-1" target="aEb02ax9EN3gxrXx6o8U-3">
          <mxGeometry relative="1" as="geometry" />
        </mxCell>
        <mxCell id="aEb02ax9EN3gxrXx6o8U-14" style="edgeStyle=orthogonalEdgeStyle;rounded=0;orthogonalLoop=1;jettySize=auto;html=1;exitX=0.5;exitY=1;exitDx=0;exitDy=0;entryX=0.438;entryY=-0.054;entryDx=0;entryDy=0;entryPerimeter=0;" edge="1" parent="1" source="aEb02ax9EN3gxrXx6o8U-3" target="aEb02ax9EN3gxrXx6o8U-4">
          <mxGeometry relative="1" as="geometry" />
        </mxCell>
        <mxCell id="aEb02ax9EN3gxrXx6o8U-15" style="edgeStyle=orthogonalEdgeStyle;rounded=0;orthogonalLoop=1;jettySize=auto;html=1;exitX=0.5;exitY=1;exitDx=0;exitDy=0;entryX=0.5;entryY=0;entryDx=0;entryDy=0;entryPerimeter=0;" edge="1" parent="1" source="aEb02ax9EN3gxrXx6o8U-4" target="aEb02ax9EN3gxrXx6o8U-5">
          <mxGeometry relative="1" as="geometry" />
        </mxCell>
        <mxCell id="aEb02ax9EN3gxrXx6o8U-16" style="edgeStyle=orthogonalEdgeStyle;rounded=0;orthogonalLoop=1;jettySize=auto;html=1;exitX=0.5;exitY=1;exitDx=0;exitDy=0;exitPerimeter=0;entryX=0.5;entryY=0;entryDx=0;entryDy=0;entryPerimeter=0;" edge="1" parent="1" source="aEb02ax9EN3gxrXx6o8U-11" target="aEb02ax9EN3gxrXx6o8U-2">
          <mxGeometry relative="1" as="geometry" />
        </mxCell>
        <mxCell id="aEb02ax9EN3gxrXx6o8U-17" value="" style="verticalLabelPosition=bottom;verticalAlign=top;html=1;shape=mxgraph.flowchart.on-page_reference;" vertex="1" parent="1">
          <mxGeometry x="580" y="410" width="60" height="60" as="geometry" />
        </mxCell>
        <mxCell id="aEb02ax9EN3gxrXx6o8U-18" style="edgeStyle=orthogonalEdgeStyle;rounded=0;orthogonalLoop=1;jettySize=auto;html=1;exitX=1;exitY=0.5;exitDx=0;exitDy=0;exitPerimeter=0;entryX=0;entryY=0.5;entryDx=0;entryDy=0;entryPerimeter=0;" edge="1" parent="1" source="aEb02ax9EN3gxrXx6o8U-5" target="aEb02ax9EN3gxrXx6o8U-17">
          <mxGeometry relative="1" as="geometry" />
        </mxCell>
        <mxCell id="aEb02ax9EN3gxrXx6o8U-19" value="NÃO" style="edgeLabel;html=1;align=center;verticalAlign=middle;resizable=0;points=[];" vertex="1" connectable="0" parent="aEb02ax9EN3gxrXx6o8U-18">
          <mxGeometry x="-0.12" relative="1" as="geometry">
            <mxPoint as="offset" />
          </mxGeometry>
        </mxCell>
        <mxCell id="aEb02ax9EN3gxrXx6o8U-20" style="edgeStyle=orthogonalEdgeStyle;rounded=0;orthogonalLoop=1;jettySize=auto;html=1;exitX=1;exitY=0.5;exitDx=0;exitDy=0;exitPerimeter=0;entryX=0.617;entryY=1.046;entryDx=0;entryDy=0;entryPerimeter=0;" edge="1" parent="1" source="aEb02ax9EN3gxrXx6o8U-6" target="aEb02ax9EN3gxrXx6o8U-17">
          <mxGeometry relative="1" as="geometry" />
        </mxCell>
        <mxCell id="aEb02ax9EN3gxrXx6o8U-21" value="NÃO" style="edgeLabel;html=1;align=center;verticalAlign=middle;resizable=0;points=[];" vertex="1" connectable="0" parent="aEb02ax9EN3gxrXx6o8U-20">
          <mxGeometry x="-0.2755" relative="1" as="geometry">
            <mxPoint as="offset" />
          </mxGeometry>
        </mxCell>
        <mxCell id="aEb02ax9EN3gxrXx6o8U-22" value="&quot;NÃO RECEBE BONUS&quot;" style="strokeWidth=2;html=1;shape=mxgraph.flowchart.display;whiteSpace=wrap;" vertex="1" parent="1">
          <mxGeometry x="650" y="640" width="130" height="70" as="geometry" />
        </mxCell>
        <mxCell id="aEb02ax9EN3gxrXx6o8U-23" style="edgeStyle=orthogonalEdgeStyle;rounded=0;orthogonalLoop=1;jettySize=auto;html=1;entryX=0.5;entryY=0;entryDx=0;entryDy=0;entryPerimeter=0;" edge="1" parent="1" source="aEb02ax9EN3gxrXx6o8U-17" target="aEb02ax9EN3gxrXx6o8U-22">
          <mxGeometry relative="1" as="geometry" />
        </mxCell>
        <mxCell id="aEb02ax9EN3gxrXx6o8U-24" style="edgeStyle=orthogonalEdgeStyle;rounded=0;orthogonalLoop=1;jettySize=auto;html=1;exitX=0.5;exitY=1;exitDx=0;exitDy=0;exitPerimeter=0;entryX=1;entryY=0.5;entryDx=0;entryDy=0;entryPerimeter=0;" edge="1" parent="1" source="aEb02ax9EN3gxrXx6o8U-22" target="aEb02ax9EN3gxrXx6o8U-11">
          <mxGeometry relative="1" as="geometry" />
        </mxCell>
        <mxCell id="aEb02ax9EN3gxrXx6o8U-26" style="edgeStyle=orthogonalEdgeStyle;rounded=0;orthogonalLoop=1;jettySize=auto;html=1;exitX=0.5;exitY=1;exitDx=0;exitDy=0;exitPerimeter=0;entryX=0.5;entryY=0;entryDx=0;entryDy=0;entryPerimeter=0;" edge="1" parent="1" source="aEb02ax9EN3gxrXx6o8U-6">
          <mxGeometry relative="1" as="geometry">
            <mxPoint x="210" y="625" as="targetPoint" />
          </mxGeometry>
        </mxCell>
        <mxCell id="aEb02ax9EN3gxrXx6o8U-30" value="&quot;RECEBE BONUS + &quot;" style="strokeWidth=2;html=1;shape=mxgraph.flowchart.display;whiteSpace=wrap;" vertex="1" parent="1">
          <mxGeometry x="40" y="850" width="120" height="70" as="geometry" />
        </mxCell>
        <mxCell id="aEb02ax9EN3gxrXx6o8U-31" value="IDADE" style="shape=parallelogram;html=1;strokeWidth=2;perimeter=parallelogramPerimeter;whiteSpace=wrap;rounded=1;arcSize=12;size=0.23;" vertex="1" parent="1">
          <mxGeometry x="160" y="630" width="100" height="40" as="geometry" />
        </mxCell>
        <mxCell id="aEb02ax9EN3gxrXx6o8U-32" value="IDADE &amp;gt;= 60" style="strokeWidth=2;html=1;shape=mxgraph.flowchart.decision;whiteSpace=wrap;" vertex="1" parent="1">
          <mxGeometry x="130" y="700" width="160" height="100" as="geometry" />
        </mxCell>
        <mxCell id="aEb02ax9EN3gxrXx6o8U-33" style="edgeStyle=orthogonalEdgeStyle;rounded=0;orthogonalLoop=1;jettySize=auto;html=1;exitX=0.5;exitY=1;exitDx=0;exitDy=0;entryX=0.5;entryY=0;entryDx=0;entryDy=0;entryPerimeter=0;" edge="1" parent="1" source="aEb02ax9EN3gxrXx6o8U-31" target="aEb02ax9EN3gxrXx6o8U-32">
          <mxGeometry relative="1" as="geometry" />
        </mxCell>
        <mxCell id="aEb02ax9EN3gxrXx6o8U-34" style="edgeStyle=orthogonalEdgeStyle;rounded=0;orthogonalLoop=1;jettySize=auto;html=1;exitX=0.5;exitY=0;exitDx=0;exitDy=0;exitPerimeter=0;entryX=0;entryY=0.5;entryDx=0;entryDy=0;entryPerimeter=0;" edge="1" parent="1" source="aEb02ax9EN3gxrXx6o8U-30" target="aEb02ax9EN3gxrXx6o8U-32">
          <mxGeometry relative="1" as="geometry" />
        </mxCell>
        <mxCell id="aEb02ax9EN3gxrXx6o8U-35" value="SIM" style="edgeLabel;html=1;align=center;verticalAlign=middle;resizable=0;points=[];" vertex="1" connectable="0" parent="aEb02ax9EN3gxrXx6o8U-34">
          <mxGeometry x="0.0092" y="2" relative="1" as="geometry">
            <mxPoint as="offset" />
          </mxGeometry>
        </mxCell>
        <mxCell id="aEb02ax9EN3gxrXx6o8U-36" style="edgeStyle=orthogonalEdgeStyle;rounded=0;orthogonalLoop=1;jettySize=auto;html=1;exitX=0.5;exitY=0;exitDx=0;exitDy=0;exitPerimeter=0;entryX=1;entryY=0.5;entryDx=0;entryDy=0;entryPerimeter=0;" edge="1" parent="1" source="aEb02ax9EN3gxrXx6o8U-7" target="aEb02ax9EN3gxrXx6o8U-32">
          <mxGeometry relative="1" as="geometry" />
        </mxCell>
        <mxCell id="aEb02ax9EN3gxrXx6o8U-37" value="NÃO" style="edgeLabel;html=1;align=center;verticalAlign=middle;resizable=0;points=[];" vertex="1" connectable="0" parent="aEb02ax9EN3gxrXx6o8U-36">
          <mxGeometry x="-0.0567" relative="1" as="geometry">
            <mxPoint as="offset" />
          </mxGeometry>
        </mxCell>
        <mxCell id="aEb02ax9EN3gxrXx6o8U-40" value="" style="verticalLabelPosition=bottom;verticalAlign=top;html=1;shape=mxgraph.flowchart.on-page_reference;" vertex="1" parent="1">
          <mxGeometry x="190" y="990" width="60" height="60" as="geometry" />
        </mxCell>
        <mxCell id="aEb02ax9EN3gxrXx6o8U-41" style="edgeStyle=orthogonalEdgeStyle;rounded=0;orthogonalLoop=1;jettySize=auto;html=1;exitX=0.5;exitY=1;exitDx=0;exitDy=0;exitPerimeter=0;entryX=0;entryY=0.5;entryDx=0;entryDy=0;entryPerimeter=0;" edge="1" parent="1" source="aEb02ax9EN3gxrXx6o8U-30" target="aEb02ax9EN3gxrXx6o8U-40">
          <mxGeometry relative="1" as="geometry" />
        </mxCell>
        <mxCell id="aEb02ax9EN3gxrXx6o8U-42" style="edgeStyle=orthogonalEdgeStyle;rounded=0;orthogonalLoop=1;jettySize=auto;html=1;exitX=0.5;exitY=1;exitDx=0;exitDy=0;exitPerimeter=0;entryX=0.5;entryY=0;entryDx=0;entryDy=0;entryPerimeter=0;" edge="1" parent="1" source="aEb02ax9EN3gxrXx6o8U-7" target="aEb02ax9EN3gxrXx6o8U-40">
          <mxGeometry relative="1" as="geometry" />
        </mxCell>
        <mxCell id="aEb02ax9EN3gxrXx6o8U-43" style="edgeStyle=orthogonalEdgeStyle;rounded=0;orthogonalLoop=1;jettySize=auto;html=1;exitX=1;exitY=0.5;exitDx=0;exitDy=0;exitPerimeter=0;entryX=0.089;entryY=0.329;entryDx=0;entryDy=0;entryPerimeter=0;" edge="1" parent="1" source="aEb02ax9EN3gxrXx6o8U-40" target="aEb02ax9EN3gxrXx6o8U-11">
          <mxGeometry relative="1" as="geometry" />
        </mxCell>
      </root>
    </mxGraphModel>
  </diagram>
</mxfile>
